<svg xmlns="http://www.w3.org/2000/svg" viewBox="0 0 267.8 248.6"><defs><style>.cls-1{fill:#24b94a;}</style></defs><title>Asset 3</title><g id="Layer_2" data-name="Layer 2"><g id="Layer_1-2" data-name="Layer 1"><path class="cls-1" d="M183.76,0A83.55,83.55,0,0,0,133.9,16.5a83.94,83.94,0,0,0-107,129.07l104.17,103,109.76-103A84,84,0,0,0,183.76,0ZM80.69,82.71a14.1,14.1,0,1,1,14.1,14.1A14.1,14.1,0,0,1,80.69,82.71ZM180,151.37c-14.77,14.77-30.33,22.24-46.32,22.24q-1.7,0-3.4-.11c-26.05-1.72-42.62-23-43.31-23.88a9.74,9.74,0,0,1,15.44-11.87c.3.39,12.25,15.27,29.3,16.32,11.3.68,22.9-4.85,34.52-16.47A9.74,9.74,0,0,1,180,151.37Zm-7-54.56a14.1,14.1,0,1,1,14.1-14.1A14.1,14.1,0,0,1,173,96.81Z"/></g></g></svg>