<svg xmlns="http://www.w3.org/2000/svg" viewBox="0 0 365.13 250.24"><defs><style>.cls-1{fill:#f7c93f;}.cls-2{fill:#fff;}</style></defs><title>Asset 4</title><g id="Layer_2" data-name="Layer 2"><g id="Layer_1-2" data-name="Layer 1"><path class="cls-1" d="M238.57,0a84.1,84.1,0,0,0-50.19,16.61A84.5,84.5,0,0,0,80.71,146.53L185.57,250.24,296.05,146.53A84.51,84.51,0,0,0,238.57,0Z"/><path class="cls-2" d="M173.77,197.31l-27.63-79.53-24.85,27.69H5.82a5.82,5.82,0,0,1,0-11.63H116.1l34.56-38.51,21.6,62.21L207.15,25.85l50.2,108h102a5.82,5.82,0,1,1,0,11.63H249.93L210.16,59.93Z"/></g></g></svg>