<svg id="Layer_1" data-name="Layer 1" xmlns="http://www.w3.org/2000/svg" viewBox="0 0 40 40"><defs><style>.cls-1{fill:#f46767;}</style></defs><title>Asset_4</title><rect class="cls-1" x="12.8" y="27.64" width="3.65" height="5.22"/><rect class="cls-1" x="23.25" y="27.64" width="3.65" height="5.22"/><rect class="cls-1" x="18.77" y="27.64" width="2.31" height="5.22"/><path class="cls-1" d="M19.93,6.38a12.15,12.15,0,0,0-5.85,22.81h11.7A12.15,12.15,0,0,0,19.93,6.38ZM15.37,21.17a3.36,3.36,0,1,1,3.36-3.36A3.36,3.36,0,0,1,15.37,21.17Zm9.05,0a3.36,3.36,0,1,1,3.36-3.36A3.36,3.36,0,0,1,24.42,21.17Z"/><path class="cls-1" d="M5.39,6.43H8.16a2.87,2.87,0,1,0-2.77,0Z"/><path class="cls-1" d="M6.18,8.23V5.46a2.87,2.87,0,1,0,0,2.77Z"/><path class="cls-1" d="M10.74,7.69,7.46,4.41,4.24,7.63l3.47,3.47.23-.23A14.43,14.43,0,0,1,10.74,7.69Z"/><path class="cls-1" d="M33.53,5.6V8.37a2.87,2.87,0,1,0,0-2.77Z"/><path class="cls-1" d="M31.73,6.39H34.5a2.87,2.87,0,1,0-2.77,0Z"/><path class="cls-1" d="M32.14,11.08l3.41-3.41L32.33,4.45,29.14,7.64A14.43,14.43,0,0,1,32.14,11.08Z"/><path class="cls-1" d="M34.61,33.57H31.84a2.87,2.87,0,1,0,2.77,0Z"/><path class="cls-1" d="M33.82,31.77v2.77a2.87,2.87,0,1,0,0-2.77Z"/><polygon class="cls-1" points="30.91 27.52 29.14 29.28 29.14 32.19 32.54 35.59 35.76 32.37 30.91 27.52"/><path class="cls-1" d="M6.47,34.4V31.63a2.87,2.87,0,1,0,0,2.77Z"/><path class="cls-1" d="M8.27,33.61H5.5a2.87,2.87,0,1,0,2.77,0Z"/><polygon class="cls-1" points="10.55 29.26 9.03 27.75 4.45 32.33 7.67 35.55 10.55 32.67 10.55 29.26"/></svg>