<svg id="Layer_1" data-name="Layer 1" xmlns="http://www.w3.org/2000/svg" viewBox="0 0 40 40"><defs><style>.cls-1{fill:#24b94a;}</style></defs><title>Asset_3</title><path class="cls-1" d="M27.34,1.7A12.3,12.3,0,0,0,20,4.13a12.36,12.36,0,0,0-15.75,19L19.59,38.3,35.75,23.13A12.36,12.36,0,0,0,27.34,1.7ZM12.17,13.88A2.08,2.08,0,1,1,14.24,16,2.08,2.08,0,0,1,12.17,13.88ZM26.78,24c-2.17,2.17-4.47,3.27-6.82,3.27l-.5,0a9.58,9.58,0,0,1-6.38-3.51A1.43,1.43,0,0,1,15.36,22a6.73,6.73,0,0,0,4.31,2.4c1.66.1,3.37-.71,5.08-2.42a1.43,1.43,0,0,1,2,2Zm-1-8a2.08,2.08,0,1,1,2.08-2.08A2.08,2.08,0,0,1,25.76,16Z"/></svg>