<svg xmlns="http://www.w3.org/2000/svg" viewBox="0 0 252.63 250.17"><defs><style>.cls-1{fill:#903ef3;}</style></defs><title>Asset 1</title><g id="Layer_2" data-name="Layer 2"><g id="Layer_1-2" data-name="Layer 1"><circle class="cls-1" cx="209.34" cy="225.43" r="15.52"/><circle class="cls-1" cx="35.87" cy="209.89" r="11.23"/><circle class="cls-1" cx="39.22" cy="22.91" r="15.52"/><circle class="cls-1" cx="121.83" cy="128.47" r="68.79"/><path class="cls-1" d="M147.62,72.86S173.48,71.14,179,49.42c3.44-13.53,17.24-12.07,24.14-7.93,5.17,3.1,7.93,20.34-7.24,23.79-17.74,4-18.27,33.79-18.27,33.79Z"/><path class="cls-1" d="M180.36,139.13s4.93,25.44,27.17,28.21c13.86,1.73,14.12,15.6,10.87,23-2.44,5.52-19.2,10.4-24.51-4.22-6.21-17.1-35.8-13.93-35.8-13.93Z"/><path class="cls-1" d="M72.49,112.54S68,87,45.81,83.87C32,81.91,32,68,35.33,60.72c2.53-5.48,19.37-10.07,24.43,4.64C65.68,82.57,95.32,79.9,95.32,79.9Z"/><path class="cls-1" d="M115.45,192.69s-24.29,9-23.39,31.42c.56,14-13.08,16.48-20.87,14.48-5.84-1.5-13.4-17.24.16-24.87,15.86-8.92,7.88-37.6,7.88-37.6Z"/><path class="cls-1" d="M98,71.48s10.69-22.76-2.41-30.34S79.35,22.52,82.11,13.9,93.83-4,110.38,1.83s13.1,27.58,6.9,34.82,6.55,30,11.72,36.89S98,71.48,98,71.48Z"/><path class="cls-1" d="M182.28,105.15S203,119.46,212.6,107.8s21-12.89,29.09-8.74,15.74,14.53,7.21,29.88-29.37,8.35-35.49,1-30.67,1.49-38.33,5.44S182.28,105.15,182.28,105.15Z"/><path class="cls-1" d="M71.55,162.51s-23.22-9.64-30.2,3.79-17.86,17-26.6,14.67S-3.69,170.08,1.41,153.28s27-14.34,34.47-8.47,29.67-7.91,36.32-13.39S71.55,162.51,71.55,162.51Z"/><path class="cls-1" d="M152.75,186.33s-8.66,20.7,3.31,27,15.16,16,13,23.77-9.77,16.43-24.74,11.84-12.74-24.09-7.48-30.78-7-26.49-11.86-32.44S152.75,186.33,152.75,186.33Z"/></g></g></svg>