<svg id="Layer_1" data-name="Layer 1" xmlns="http://www.w3.org/2000/svg" viewBox="0 0 40 40"><defs><style>.cls-1{fill:#903ef3;}</style></defs><title>Asset_1</title><circle class="cls-1" cx="32.49" cy="35.09" r="2.33"/><circle class="cls-1" cx="6.4" cy="32.76" r="1.69"/><circle class="cls-1" cx="6.9" cy="4.63" r="2.33"/><path class="cls-1" d="M37.35,16.08c-1.21-.62-2.92-.44-4.38,1.32-1,1.19-2.74.58-3.76.06a10.3,10.3,0,0,0-1.34-2.78c.25-1.37.9-3.29,2.59-3.68a2.12,2.12,0,0,0,1.09-3.58c-1-.62-3.11-.84-3.63,1.19a4.58,4.58,0,0,1-3.07,3.15,10.29,10.29,0,0,0-5.53-1.6h-.14c-.63-1.32-1.1-2.81-.54-3.47.93-1.09,1.45-4.36-1-5.24S13.77,2,13.35,3.28s.05,3,2,4.1c1.18.68,1.08,2.18.8,3.28a10.33,10.33,0,0,0-3.88,2.27A3.19,3.19,0,0,1,10,11a2.12,2.12,0,0,0-3.67-.7c-.51,1.1-.5,3.19,1.58,3.48a4.18,4.18,0,0,1,2.57,1.38,10.38,10.38,0,0,0-1.27,7.42c-1.1.51-2.22.82-2.79.37C5.27,22.08,2,21.71,1.21,24.24s.69,3.81,2,4.17,3-.19,4-2.21c.56-1.08,1.82-1.17,2.88-1a10.39,10.39,0,0,0,3,3.61c.18,1.37.21,3.63-1.4,4.53a2.12,2.12,0,0,0,0,3.74c1.17.3,3.22-.08,3.14-2.18a4.79,4.79,0,0,1,2.53-4.22,10.35,10.35,0,0,0,3.49.07c.66,1.19,1.21,2.62.71,3.25-.79,1-1.13,3.94,1.12,4.63s3.4-.61,3.72-1.78-.16-2.63-2-3.58c-1.28-.67-1-2.44-.72-3.41a10.38,10.38,0,0,0,3.47-2.68,3.53,3.53,0,0,1,2.94,2,2.12,2.12,0,0,0,3.69.64c.49-1.11.45-3.19-1.64-3.45A4.4,4.4,0,0,1,29,24.2a10.31,10.31,0,0,0,.68-3.53c1.38-.39,2.89-.59,3.43.06.92,1.1,4.06,2.15,5.34-.15S38.56,16.71,37.35,16.08Z"/></svg>