<svg xmlns="http://www.w3.org/2000/svg" viewBox="0 0 362.95 344.57"><defs><style>.cls-1{fill:#fff;}.cls-2{fill:#0f143e;}.cls-3{fill:#ef9895;}.cls-4{fill:#ef2e5c;}.cls-5{fill:#e0e0e0;}.cls-6{fill:#f4d243;}</style></defs><title>Asset 5</title><g id="Layer_2" data-name="Layer 2"><g id="Layer_1-2" data-name="Layer 1"><circle class="cls-1" cx="162.21" cy="180.51" r="162.21"/><path class="cls-2" d="M179.79,124.81l63.28,44s80.64,3.64,57.4-36.68S203,113.33,203,113.33Z"/><path class="cls-3" d="M205.81,69.08l-7.7-27-30.39,1.82-.14-12.6L148.4,10l-18.2,7.56s-13.86.56-29,16.52S99,89.64,99,89.64l10.71,15.29,9.14-.6,5.48,17.2h0l0,.07-2.71.31.85,1.21,64.27-16.24-.7-22.68Z"/><path class="cls-4" d="M173.3,65.31s5.33-12.27,9.54-9,5.83,17.35.25,17S172.68,72.25,173.3,65.31Z"/><path class="cls-5" d="M175.39,81.14l.3-.09-.41-.13L174,78.46c-19.87,17.45-20.3-3.89-13.78-8.72,6.07-4.5,12-15,12.79-16.44l-2-1.24c-3.27,8.72-23.88,17.22-44.68,18.78a45.48,45.48,0,0,1-4.88.08,47.66,47.66,0,0,1-10.82-1.61A54.2,54.2,0,0,1,94,61.51,119.84,119.84,0,0,0,99,89.64L116,113.8c19.8-.53,59.8-31.93,59.8-31.93Z"/><path class="cls-2" d="M147,18s5.6,34.59,23.24,39.21c0,0,11.06-12.74,17.64-4.9s3.64,27.17-3.22,27.31A34.63,34.63,0,0,1,174,78.46l-.42,28.15L270,103.26s3.69-19.57,8.51-23.82,22.69-36.58-11.63-55-69.48-5.1-91-13.9c0,0-14.58-16.32-45.53-8.32s-32,35.88-32,35.88S132.38,39,147,18Z"/><path class="cls-6" d="M110.86,135.06S81,117.89,56.66,146.8,1.54,284.13,35,326.59,121.71,323,121.71,323s41.61,15.22,85.83,8.13c0,0,9-16.26,5.42-39.75,0,0,45.17-63.24,35.24-116.55s-53.3-45.17-53.3-45.17L171.4,113.37Z"/><path class="cls-4" d="M115.2,115.4s29.38-4,39.24-9.15,27.62-.53,39.41-10,27.1-15.31,65.46-6.33,49.09,26.22,80.06,5.45c0,0,36.77,15,18.48,26.92s-66.51,20.94-95.9,10.91-62.29-14.6-75.31-3.7-35.19,26-57.71,25.16c0,0,0-14.56-2.37-17.62,0,0-11.32,4.81-11.69,5S115.2,115.4,115.2,115.4Z"/><path class="cls-2" d="M121.51,323.17h-.18a36,36,0,0,1-25.9-12c-31.16-33.38-21.05-127.89-20.61-131.9a4.79,4.79,0,0,1,5.33-4,4.62,4.62,0,0,1,4.33,5,390.42,390.42,0,0,0-1.55,51.6c1.4,35.64,8.26,61,19.83,73.42a26.06,26.06,0,0,0,18.91,8.85,4.53,4.53,0,1,1-.17,9.05Z"/><path class="cls-2" d="M150.91,226.48a4.86,4.86,0,0,1-4.29-2.57c-14-26.26-17.49-42.94-17.64-43.63a4.86,4.86,0,0,1,9.52-1.94c0,.2,3.44,16.16,16.69,41a4.86,4.86,0,0,1-4.28,7.15Z"/><path class="cls-3" d="M94,147.82s1.79-33.21,1.43-38.21S93.35,90.1,94.13,86.08,97.63,94,97.63,94s-.26-10.13,1-15.45,3.51,10.9,3.51,10.9.78-13,3.12-17.27,2.86,17.53,2.86,17.53,1.3-11.16,3.76-13.89,4.67,24,4.67,24,5.71-6,10.39-3.89S116.33,108.79,116.72,118s.91,22.85.91,22.85S102.63,147.64,94,147.82Z"/><path class="cls-4" d="M106.09,63.45s5,6.27,10.21,5.9l3.57-.86,1.35-15.38S109.9,63.57,106.09,63.45Z"/><path class="cls-2" d="M103.4,57.19h-.19C99.32,57,97.5,49.53,97,47.26a1.46,1.46,0,0,1,2.86-.59c.79,3.85,2.48,7.54,3.48,7.6.07,0,1.69.06,4.29-7.88a1.46,1.46,0,0,1,2.77.91C108.19,54.12,106,57.19,103.4,57.19Z"/><path class="cls-2" d="M133.6,60.71h-.29c-4.58-.38-6.43-10.25-6.89-13.27A1.46,1.46,0,0,1,129.3,47c.85,5.54,2.88,10.69,4.25,10.81.1,0,2.41.09,6.17-11.43a1.46,1.46,0,0,1,2.77.91C139.47,56.54,136.71,60.71,133.6,60.71Z"/></g></g></svg>