<svg id="Layer_1" data-name="Layer 1" xmlns="http://www.w3.org/2000/svg" viewBox="0 0 1080 1080"><defs><style>.cls-1{fill:#fff;}.cls-2{fill:#006;}.cls-3{fill:#f93;}.cls-4{fill:#138808;}</style></defs><title>flag</title><rect id="rect4117" class="cls-1" x="-267" y="-2.67" width="1628" height="1085.33"/><path id="path2128" class="cls-2" d="M709.8,540A162.8,162.8,0,1,1,547,377.2,162.8,162.8,0,0,1,709.8,540Z"/><path id="path6" class="cls-1" d="M547,540l-5,57.15,4.34,86.26q-4.54,0-9.07-.33a9.07,9.07,0,0,0-18-2.37q-4.45-.88-8.84-2L537,596.49Zm0,0-19.58,53.92-18.14,84.44q-4.38-1.19-8.67-2.66a9.07,9.07,0,1,0-16.75-6.94q-4.07-2-8-4.25L522.72,592Zm0,0-32.87,47-39.37,76.87q-3.92-2.28-7.69-4.82a9.07,9.07,0,0,0-14.39-11q-3.42-3-6.64-6.18l64.06-57.93Zm0,0-43.92,36.9L445.15,641q-3.2-3.22-6.18-6.64a9.07,9.07,0,1,0-11-14.39q-2.53-3.77-4.82-7.69L500,572.87Zm0,0-52,24.28-72.53,46.89q-2.25-3.94-4.25-8a9.07,9.07,0,1,0-6.94-16.75q-1.47-4.29-2.66-8.67l84.44-18.14Zm0,0-56.49,10-82.2,26.51q-1.15-4.39-2-8.84a9.07,9.07,0,0,0-2.37-18q-.31-4.53-.33-9.07L489.85,545Zm0,0-57.15-5-86.26,4.34q0-4.54.33-9.07a9.07,9.07,0,0,0,2.37-18q.88-4.45,2-8.84L490.51,530Zm0,0-53.92-19.59-84.44-18.14q1.19-4.38,2.66-8.67a9.07,9.07,0,1,0,6.94-16.75q2-4.07,4.25-8L495,515.72Zm0,0-47-32.87-76.87-39.38q2.29-3.92,4.82-7.69a9.07,9.07,0,1,0,11-14.39q3-3.42,6.18-6.64l57.93,64.06Zm0,0-36.9-43.92L446,438.15q3.22-3.2,6.64-6.18a9.07,9.07,0,1,0,14.39-11q3.77-2.53,7.69-4.82L514.13,493Zm0,0-24.28-52-46.89-72.54q3.94-2.25,8-4.25a9.07,9.07,0,1,0,16.75-6.94q4.29-1.47,8.67-2.66l18.14,84.44Zm0,0-10-56.49-26.52-82.2q4.39-1.15,8.84-2a9.07,9.07,0,0,0,18-2.37q4.53-.31,9.07-.33L542,482.85Zm0,0,5-57.15-4.33-86.26q4.54,0,9.07.33a9.07,9.07,0,0,0,18,2.37q4.45.88,8.84,2L557,483.51Zm0,0,19.59-53.92,18.14-84.44q4.38,1.19,8.67,2.66a9.07,9.07,0,1,0,16.75,6.94q4.08,2,8,4.25L571.28,488Zm0,0,32.87-47,39.37-76.87q3.92,2.29,7.69,4.82a9.07,9.07,0,0,0,14.39,11q3.42,3,6.64,6.18L583.9,496.08Zm0,0,43.92-36.9L648.85,439q3.2,3.22,6.18,6.64a9.07,9.07,0,0,0,11,14.39q2.53,3.77,4.82,7.69L594,507.13Zm0,0,52-24.28,72.53-46.88q2.25,3.94,4.25,8a9.07,9.07,0,0,0,6.94,16.75q1.46,4.29,2.66,8.67l-84.44,18.14Zm0,0,56.49-10,82.2-26.51q1.16,4.39,2,8.84a9.07,9.07,0,0,0,2.37,18q.31,4.53.33,9.07L604.15,535Zm0,0,57.15,5,86.26-4.33q0,4.54-.33,9.07a9.07,9.07,0,0,0-2.37,18q-.88,4.45-2,8.84L603.49,550Zm0,0,53.92,19.59,84.44,18.14q-1.2,4.38-2.66,8.67a9.07,9.07,0,1,0-6.94,16.75q-2,4.08-4.25,8L599,564.27Zm0,0,47,32.87,76.87,39.37q-2.28,3.92-4.82,7.69a9.07,9.07,0,0,0-11,14.39q-3,3.42-6.18,6.64L590.92,576.9Zm0,0,36.9,43.92L648,641.85q-3.22,3.2-6.64,6.18a9.07,9.07,0,0,0-14.39,11q-3.77,2.53-7.69,4.82L579.87,587Zm0,0,24.28,52,46.88,72.53q-3.93,2.25-8,4.25a9.07,9.07,0,1,0-16.75,6.94q-4.29,1.46-8.67,2.66l-18.14-84.44Zm0,0,10,56.49,26.52,82.2q-4.39,1.16-8.84,2a9.07,9.07,0,0,0-18,2.37q-4.53.31-9.07.33L552,597.15Z"/><path id="path2132" class="cls-2" d="M576.27,540A29.27,29.27,0,1,1,547,510.73,29.28,29.28,0,0,1,576.27,540Z"/><rect id="rect2172" class="cls-3" x="-267" y="-2.67" width="1628" height="361.78"/><rect id="rect3146" class="cls-4" x="-267" y="720.89" width="1628" height="361.78"/></svg>